<?xml version="1.0" encoding="UTF-8" standalone="no"?>
<svg
   version="1.1"
   id="Layer_1"
   x="0px"
   y="0px"
   width="1269.601"
   height="319.15601"
   viewBox="0 0 1269.6009 319.156"
   enable-background="new 0 0 1066.696 319.156"
   xml:space="preserve"
   sodipodi:docname="rh-white-montserrat-white.svg"
   inkscape:version="1.1.2 (b8e25be833, 2022-02-05)"
   inkscape:export-filename="C:\Users\Leond\OneDrive - RHUL Computing Society\CompSoc Documents\Royal Hackaway\v5\Branding\rh-orange-montserrat-editable.png"
   inkscape:export-xdpi="96"
   inkscape:export-ydpi="96"
   xmlns:inkscape="http://www.inkscape.org/namespaces/inkscape"
   xmlns:sodipodi="http://sodipodi.sourceforge.net/DTD/sodipodi-0.dtd"
   xmlns="http://www.w3.org/2000/svg"
   xmlns:svg="http://www.w3.org/2000/svg"
   xmlns:rdf="http://www.w3.org/1999/02/22-rdf-syntax-ns#"
   xmlns:cc="http://creativecommons.org/ns#"
   xmlns:dc="http://purl.org/dc/elements/1.1/"><metadata
   id="metadata49"><rdf:RDF><cc:Work
       rdf:about=""><dc:format>image/svg+xml</dc:format><dc:type
         rdf:resource="http://purl.org/dc/dcmitype/StillImage" /></cc:Work></rdf:RDF></metadata><defs
   id="defs47" /><sodipodi:namedview
   pagecolor="#454545"
   bordercolor="#666666"
   borderopacity="1"
   objecttolerance="10"
   gridtolerance="10"
   guidetolerance="10"
   inkscape:pageopacity="0"
   inkscape:pageshadow="2"
   inkscape:window-width="2560"
   inkscape:window-height="1387"
   id="namedview45"
   showgrid="false"
   inkscape:zoom="0.9768481"
   inkscape:cx="651.58544"
   inkscape:cy="342.93971"
   inkscape:window-x="-8"
   inkscape:window-y="-8"
   inkscape:window-maximized="1"
   inkscape:current-layer="Layer_1"
   inkscape:document-rotation="0"
   showguides="false"
   fit-margin-top="0"
   fit-margin-left="0"
   fit-margin-right="0"
   fit-margin-bottom="0"
   inkscape:pagecheckerboard="0"
   inkscape:showpageshadow="0"
   inkscape:deskcolor="#454545" />
<g
   id="g42"
   style="fill:#fffbfa;fill-opacity:1"
   transform="translate(-8.3848414e-4)">
	<g
   id="g12"
   style="fill:#fffbfa;fill-opacity:1">
		<path
   fill="#EB6824"
   d="m 146.838,15 c 8.682,0 17.395,2.489 26.243,7.646 27.028,15.757 54.293,31.116 81.223,47.041 15.797,9.341 23.828,23.731 23.936,42.103 0.188,31.548 0.175,63.099 0.011,94.646 -0.104,19.935 -9.189,34.502 -26.64,44.347 -26.881,15.169 -53.51,30.78 -80.233,46.224 -8.25,4.768 -16.496,7.15 -24.741,7.15 -8.227,0 -16.451,-2.371 -24.685,-7.112 C 93.923,280.908 65.704,265.085 37.923,248.53 22.833,239.536 15.335,225.401 15.107,207.774 14.9,191.684 15.064,175.588 15.06,159.497 15.058,143.829 15.007,128.161 15.072,112.492 15.154,92.462 24.312,77.921 41.634,68.052 67.347,53.399 93.07,38.749 118.493,23.605 127.991,17.945 137.396,15 146.838,15 m 0,-15 C 134.873,0 122.753,3.605 110.814,10.716 85.867,25.577 60.147,40.234 35.274,54.408 l -1.07,0.61 C 11.976,67.684 0.172,87.537 0.069,112.43 c -0.046,11.048 -0.033,22.261 -0.021,33.104 0.005,4.654 0.01,9.31 0.01,13.964 10e-4,4.998 -0.014,9.995 -0.029,14.991 -0.032,10.954 -0.066,22.28 0.077,33.478 0.147,11.365 2.739,21.686 7.703,30.674 5.137,9.303 12.685,16.965 22.433,22.773 19.551,11.65 39.586,23.094 58.96,34.16 8.29,4.734 16.861,9.632 25.265,14.469 10.5,6.047 21.324,9.113 32.169,9.113 10.875,0 21.724,-3.083 32.246,-9.163 7.362,-4.254 14.717,-8.521 22.072,-12.788 18.988,-11.018 38.624,-22.409 58.028,-33.359 22.288,-12.574 34.139,-32.398 34.268,-57.33 0.174,-33.43 0.171,-64.442 -0.011,-94.813 -0.14,-23.906 -10.963,-42.899 -31.3,-54.926 C 246.044,47.378 229.805,38.044 214.101,29.016 203.114,22.7 191.751,16.168 180.636,9.689 169.605,3.26 158.235,0 146.838,0 Z"
   id="path2"
   style="fill:#fffbfa;fill-opacity:1" />
		<g
   id="g10"
   style="fill:#fffbfa;fill-opacity:1">
			<path
   fill="#EB6824"
   d="m 72.166,157.517 c -1.758,1.318 -1.758,2.783 0,4.102 l 37.346,30.021 c 3.367,2.49 3.809,7.176 1.025,10.545 -2.784,3.369 -7.179,3.66 -10.545,0.879 L 60.888,171.431 c -8.934,-7.617 -8.934,-16.11 0,-23.727 L 99.992,116.07 c 3.366,-2.782 7.762,-2.489 10.545,0.878 2.782,3.369 2.342,8.056 -1.025,10.545 z"
   id="path4"
   style="fill:#fffbfa;fill-opacity:1" />
			<path
   fill="#EB6824"
   d="m 146.707,210.68 c -1.758,4.103 -6.15,6.004 -10.105,4.394 -3.953,-1.61 -5.713,-6.003 -4.1,-10.104 l 38.369,-96.366 c 1.61,-4.1 6.006,-6.149 9.959,-4.539 3.955,1.61 5.858,6.004 4.102,10.105 z"
   id="path6"
   style="fill:#fffbfa;fill-opacity:1" />
			<path
   fill="#EB6824"
   d="m 200.306,210.68 c -1.758,4.103 -6.15,6.004 -10.104,4.394 -3.953,-1.61 -5.711,-6.003 -4.101,-10.104 l 38.371,-96.366 c 1.609,-4.1 6.004,-6.149 9.959,-4.539 3.953,1.61 5.857,6.004 4.1,10.105 z"
   id="path8"
   style="fill:#fffbfa;fill-opacity:1" />
		</g>
	</g>
	
</g>
<g
   aria-label="ROYAL
HACKAWAY V6"
   id="text852"
   style="font-size:116.722px;line-height:1.25;font-family:mont;-inkscape-font-specification:mont;fill:#fffbfa;stroke-width:0.972683"><path
     d="M 363.72317,127.08475 V 45.379347 h 35.36677 q 10.97187,0 18.90896,3.618382 7.9371,3.50166 12.25581,10.154814 4.31872,6.653154 4.31872,15.874192 0,9.104316 -4.31872,15.75747 -4.31871,6.536432 -12.25581,10.038095 -7.93709,3.50166 -18.90896,3.50166 h -24.86179 l 8.40399,-8.287265 v 31.048055 z m 51.94129,0 -20.42635,-29.647391 h 20.19291 l 20.65979,29.647391 z m -33.03232,-28.947059 -8.40399,-8.870872 h 23.81129 q 8.75415,0 13.07287,-3.735104 4.31871,-3.851826 4.31871,-10.50498 0,-6.769876 -4.31871,-10.50498 -4.31872,-3.735104 -13.07287,-3.735104 h -23.81129 l 8.40399,-8.987594 z"
     style="font-weight:bold;font-family:Montserrat;-inkscape-font-specification:'Montserrat Bold'"
     id="path1151" /><path
     d="m 489.19939,128.48541 q -9.68792,0 -17.97518,-3.15149 -8.17054,-3.1515 -14.24009,-8.87087 -5.95282,-5.71938 -9.33776,-13.42303 -3.26821,-7.703657 -3.26821,-16.807973 0,-9.104316 3.26821,-16.807968 3.38494,-7.703652 9.45448,-13.42303 6.06955,-5.719378 14.24009,-8.870872 8.17054,-3.151494 17.74174,-3.151494 9.68793,0 17.74175,3.151494 8.17054,3.151494 14.12336,8.870872 6.06954,5.719378 9.45448,13.42303 3.38494,7.58693 3.38494,16.807968 0,9.104316 -3.38494,16.924693 -3.38494,7.70365 -9.45448,13.42303 -5.95282,5.60265 -14.12336,8.75415 -8.05382,3.15149 -17.62503,3.15149 z m -0.11672,-16.10763 q 5.48594,0 10.03809,-1.86756 4.66888,-1.86755 8.17054,-5.36921 3.50166,-3.50166 5.36922,-8.287261 1.98427,-4.785602 1.98427,-10.621702 0,-5.8361 -1.98427,-10.621702 -1.86756,-4.785602 -5.36922,-8.287262 -3.38493,-3.50166 -8.05381,-5.369212 -4.66888,-1.867552 -10.15482,-1.867552 -5.48593,0 -10.15481,1.867552 -4.55216,1.867552 -8.05382,5.369212 -3.50166,3.50166 -5.48593,8.287262 -1.86756,4.785602 -1.86756,10.621702 0,5.719378 1.86756,10.621702 1.98427,4.785601 5.36921,8.287261 3.50166,3.50166 8.17054,5.36921 4.66888,1.86756 10.15481,1.86756 z"
     style="font-weight:bold;font-family:Montserrat;-inkscape-font-specification:'Montserrat Bold'"
     id="path1153" /><path
     d="M 564.83515,127.08475 V 93.702255 l 4.31872,11.438755 -35.95038,-59.761663 h 20.07619 l 27.54639,45.871746 H 569.27059 L 596.9337,45.379347 h 18.5588 l -35.95037,59.761663 4.20199,-11.438755 v 33.382495 z"
     style="font-weight:bold;font-family:Montserrat;-inkscape-font-specification:'Montserrat Bold'"
     id="path1155" /><path
     d="m 607.67228,127.08475 36.41726,-81.705403 h 18.67552 l 36.53399,81.705403 H 679.45631 L 649.57548,54.950551 h 7.47021 l -29.99756,72.134199 z m 18.20863,-17.5083 5.01905,-14.356809 h 42.01992 l 5.13577,14.356809 z"
     style="font-weight:bold;font-family:Montserrat;-inkscape-font-specification:'Montserrat Bold'"
     id="path1157" /><path
     d="M 707.81985,127.08475 V 45.379347 h 18.90897 v 66.298093 h 40.96942 v 15.40731 z"
     style="font-weight:bold;font-family:Montserrat;-inkscape-font-specification:'Montserrat Bold'"
     id="path1159" /><path
     d="m 419.74973,192.07126 h 18.90897 v 81.7054 h -18.90897 z m -37.11759,81.7054 h -18.90897 v -81.7054 h 18.90897 z m 38.51826,-33.49921 h -39.91893 v -15.99092 h 39.91893 z"
     style="font-weight:bold;font-family:Montserrat;-inkscape-font-specification:'Montserrat Bold'"
     id="path1161" /><path
     d="m 447.29619,273.77666 36.41726,-81.7054 h 18.67552 l 36.53399,81.7054 h -19.84274 l -29.88083,-72.13419 h 7.47021 l -29.99756,72.13419 z m 18.20863,-17.5083 5.01905,-14.3568 h 42.01992 l 5.13577,14.3568 z"
     style="font-weight:bold;font-family:Montserrat;-inkscape-font-specification:'Montserrat Bold'"
     id="path1163" /><path
     d="m 585.37837,275.17733 q -9.45448,0 -17.62502,-3.03478 -8.05382,-3.15149 -14.00664,-8.87087 -5.95282,-5.71938 -9.33776,-13.42303 -3.26821,-7.70365 -3.26821,-16.92469 0,-9.22104 3.26821,-16.92469 3.38494,-7.70365 9.33776,-13.42303 6.06955,-5.71938 14.12336,-8.75415 8.05382,-3.15149 17.62503,-3.15149 10.6217,0 19.1424,3.7351 8.63743,3.61838 14.47353,10.73843 l -12.13909,11.20531 q -4.20199,-4.7856 -9.33776,-7.12004 -5.13576,-2.45117 -11.20531,-2.45117 -5.71938,0 -10.50498,1.86756 -4.7856,1.86755 -8.28726,5.36921 -3.50166,3.50166 -5.48593,8.28726 -1.86756,4.7856 -1.86756,10.6217 0,5.8361 1.86756,10.6217 1.98427,4.78561 5.48593,8.28727 3.50166,3.50166 8.28726,5.36921 4.7856,1.86755 10.50498,1.86755 6.06955,0 11.20531,-2.33444 5.13577,-2.45116 9.33776,-7.35349 l 12.13909,11.20532 q -5.8361,7.12004 -14.47353,10.85514 -8.5207,3.73511 -19.25913,3.73511 z"
     style="font-weight:bold;font-family:Montserrat;-inkscape-font-specification:'Montserrat Bold'"
     id="path1165" /><path
     d="m 648.7584,255.10114 -1.0505,-21.82701 39.10187,-41.20287 h 21.00996 l -35.25004,37.93465 -10.50498,11.20531 z m -16.92469,18.67552 v -81.7054 h 18.79224 v 81.7054 z m 55.90984,0 -29.06378,-35.60021 12.37253,-13.42303 38.7517,49.02324 z"
     style="font-weight:bold;font-family:Montserrat;-inkscape-font-specification:'Montserrat Bold'"
     id="path1167" /><path
     d="m 703.85114,273.77666 36.41727,-81.7054 h 18.67552 l 36.53398,81.7054 h -19.84274 l -29.88083,-72.13419 h 7.47021 L 723.227,273.77666 Z m 18.20864,-17.5083 5.01904,-14.3568 h 42.01992 l 5.13577,14.3568 z"
     style="font-weight:bold;font-family:Montserrat;-inkscape-font-specification:'Montserrat Bold'"
     id="path1169" /><path
     d="m 819.17256,273.77666 -26.72934,-81.7054 h 19.6093 l 23.22767,72.36764 h -9.80464 l 24.27817,-72.36764 h 17.5083 l 23.3444,72.36764 h -9.45448 l 23.81129,-72.36764 h 18.09191 l -26.72934,81.7054 h -20.30963 l -20.65979,-63.49677 h 5.36921 l -21.2434,63.49677 z"
     style="font-weight:bold;font-family:Montserrat;-inkscape-font-specification:'Montserrat Bold'"
     id="path1171" /><path
     d="m 920.13709,273.77666 36.41727,-81.7054 h 18.67552 l 36.53402,81.7054 h -19.84278 l -29.88083,-72.13419 h 7.47021 l -29.99755,72.13419 z m 18.20864,-17.5083 5.01904,-14.3568 h 42.01992 l 5.13577,14.3568 z"
     style="font-weight:bold;font-family:Montserrat;-inkscape-font-specification:'Montserrat Bold'"
     id="path1173" /><path
     d="m 1035.5753,273.77666 v -33.38249 l 4.3188,11.43876 -35.9504,-59.76167 h 20.0762 l 27.5464,45.87175 h -11.5555 l 27.6631,-45.87175 h 18.5588 l -35.9504,59.76167 4.202,-11.43876 v 33.38249 z"
     style="font-weight:bold;font-family:Montserrat;-inkscape-font-specification:'Montserrat Bold'"
     id="path1175" /><path
     d="m 1151.7139,273.77666 -35.25,-81.7054 h 20.4263 l 30.8146,72.36764 h -12.0223 l 31.2815,-72.36764 h 18.7922 l -35.3668,81.7054 z"
     style="font-weight:bold;font-family:Montserrat;-inkscape-font-specification:'Montserrat Bold'"
     id="path1177" /><path
     d="m 1242.7571,275.17733 q -11.2053,0 -19.4925,-4.66888 -8.1706,-4.66888 -12.606,-13.65648 -4.4355,-8.98759 -4.4355,-22.17718 0,-14.12336 5.2525,-23.92801 5.3693,-9.80465 14.707,-14.94041 9.4545,-5.13577 21.7103,-5.13577 6.5364,0 12.4893,1.40066 5.9528,1.40067 10.2715,4.20199 l -7.0033,13.88992 q -3.385,-2.33444 -7.2368,-3.15149 -3.8518,-0.93378 -8.0538,-0.93378 -10.6217,0 -16.808,6.41971 -6.1862,6.41971 -6.1862,19.02569 0,2.10099 0,4.66888 0.1167,2.56788 0.7003,5.13577 l -5.2525,-4.90233 q 2.2177,-4.55216 5.7194,-7.58693 3.5016,-3.15149 8.2872,-4.66888 4.9024,-1.63411 10.7385,-1.63411 7.9371,0 14.24,3.1515 6.303,3.15149 10.0381,8.87087 3.8519,5.71938 3.8519,13.42303 0,8.28726 -4.202,14.47353 -4.0853,6.06954 -11.0886,9.45448 -6.8866,3.26822 -15.6408,3.26822 z m -1.0505,-14.12337 q 3.9686,0 7.0034,-1.40066 3.1515,-1.51739 4.9023,-4.31871 1.7508,-2.80133 1.7508,-6.41971 0,-5.60266 -3.8518,-8.87088 -3.7351,-3.38493 -10.0381,-3.38493 -4.202,0 -7.3535,1.6341 -3.1515,1.51739 -5.019,4.31872 -1.7509,2.6846 -1.7509,6.30299 0,3.50166 1.7509,6.30298 1.7508,2.68461 4.9023,4.31872 3.1515,1.51738 7.7036,1.51738 z"
     style="font-weight:bold;font-family:Montserrat;-inkscape-font-specification:'Montserrat Bold'"
     id="path1179" /></g></svg>
